<svg width="93" height="56" viewBox="0 0 93 56" fill="none" xmlns="http://www.w3.org/2000/svg">
<path d="M3.0322 22.2249C6.05312 8.98431 19.0063 0.406213 32.3864 2.68249C37.9882 3.63459 43.0274 6.44319 46.9073 10.6131C46.9137 10.62 46.9215 10.6255 46.9301 10.6292C46.9387 10.633 46.948 10.6349 46.9574 10.6349C46.9668 10.6349 46.9761 10.633 46.9847 10.6292C46.9933 10.6255 47.001 10.62 47.0074 10.6131C52.8648 4.32184 61.1766 1.33844 69.6558 2.58848C83.4851 4.62773 93.0656 17.471 91.3489 31.3843C89.6362 45.2684 77.1218 55.1839 63.2793 53.8121C57.0016 53.1897 51.3063 50.258 46.9956 45.6432C46.9631 45.6078 46.9306 45.6078 46.8981 45.6432C36.1332 57.2709 17.8614 56.528 7.99505 44.2766C3.06778 38.1575 1.26286 29.982 3.0322 22.2249ZM33.7512 14.3261L33.9054 13.6931C33.9159 13.6472 33.9436 13.6154 33.9884 13.5978C34.2299 13.5033 34.3309 13.3122 34.2914 13.0244C34.2886 13.0047 34.2927 12.9847 34.3031 12.9679C34.3135 12.9512 34.3294 12.9388 34.348 12.933C35.5219 12.5464 35.2913 11.1851 36.2992 10.7415C36.3387 10.7247 36.369 10.6974 36.3901 10.6594C36.6707 10.1536 37.1779 9.35773 36.6984 9.03331C36.6571 9.00506 36.6496 8.96974 36.676 8.92737C36.8455 8.65547 36.7796 8.45596 36.4784 8.32884C36.4441 8.31471 36.4191 8.29043 36.4033 8.25601L36.2979 8.03089C36.2925 8.02016 36.2846 8.01092 36.2748 8.00401C36.265 7.99709 36.2537 7.99272 36.2418 7.99128C36.2299 7.98984 36.2179 7.99137 36.2068 7.99574C36.1956 8.00011 36.1857 8.00718 36.178 8.01633L36.0634 8.15537C36.058 8.16203 36.051 8.16723 36.0431 8.1705C36.0352 8.17377 36.0266 8.17499 36.0181 8.17407C36.0095 8.17315 36.0014 8.17011 35.9944 8.16523C35.9873 8.16034 35.9816 8.15377 35.9777 8.1461C35.4969 7.1993 34.1965 7.31318 33.3837 7.70647C33.2739 7.75944 33.266 7.83491 33.36 7.9329C33.3685 7.94155 33.3746 7.95236 33.3776 7.9642C33.3805 7.97603 33.3802 7.98845 33.3767 8.00013C33.3732 8.01182 33.3666 8.02232 33.3576 8.03054C33.3486 8.03875 33.3376 8.04436 33.3257 8.04678L32.8277 8.15537C32.8166 8.15785 32.8051 8.15722 32.7943 8.15354C32.7835 8.14987 32.7739 8.14328 32.7665 8.13447C32.7591 8.12567 32.7541 8.11497 32.7522 8.1035C32.7502 8.09203 32.7512 8.08021 32.7552 8.0693L32.9555 7.53962C32.9641 7.51705 32.9649 7.49222 32.9577 7.46915C32.9506 7.44607 32.9359 7.42611 32.916 7.4125C32.6103 7.20195 32.0069 7.36615 31.6789 7.37145C31.5867 7.37321 31.5814 7.35203 31.6631 7.30789C31.88 7.19048 32.021 7.01127 32.086 6.77027C32.0978 6.72675 32.0942 6.68046 32.0756 6.63954C32.0571 6.59862 32.0248 6.56567 31.9845 6.54648C30.9108 6.0221 30.094 7.07615 29.8476 8.02427C29.8371 8.06665 29.8498 8.09931 29.8858 8.12226L30.0268 8.21098C30.0777 8.24276 30.0883 8.2847 30.0584 8.33678C29.8937 8.62545 29.4405 8.72344 29.127 8.69166C29.101 8.68923 29.0749 8.69512 29.0524 8.7085C29.0299 8.72188 29.0122 8.74206 29.0019 8.76615C28.9915 8.79024 28.9889 8.81702 28.9946 8.84264C29.0003 8.86827 29.0139 8.89144 29.0334 8.90883L29.239 9.0876C29.246 9.09425 29.2507 9.10308 29.2522 9.1127C29.2537 9.12231 29.252 9.13216 29.2473 9.14068C29.2426 9.1492 29.2352 9.15589 29.2263 9.15971C29.2174 9.16353 29.2075 9.16425 29.1981 9.16175L28.9491 9.08098C28.914 9.0695 28.8837 9.07789 28.8582 9.10614C28.5218 9.47956 28.0954 9.6698 27.579 9.67686C27.5676 9.67726 27.5565 9.67365 27.5477 9.66663C27.5388 9.65962 27.5327 9.64963 27.5304 9.63839C27.528 9.62714 27.5296 9.61533 27.5349 9.60496C27.5402 9.59459 27.5488 9.5863 27.5592 9.58152C27.6839 9.52767 27.6967 9.44336 27.5974 9.3286C27.5849 9.31434 27.569 9.30347 27.5513 9.297C27.5335 9.29052 27.5145 9.28864 27.496 9.29152L26.0784 9.47956C26.0482 9.48309 26.0203 9.49709 25.9993 9.51914C25.9783 9.54118 25.9656 9.5699 25.9634 9.60033C25.9612 9.63077 25.9697 9.66101 25.9873 9.68586C26.0049 9.71071 26.0306 9.7286 26.06 9.73645L26.2668 9.79471C26.3151 9.80884 26.3151 9.82429 26.2668 9.84106C25.5255 10.1024 24.7662 10.2913 23.9889 10.4078C23.9468 10.414 23.9125 10.4343 23.8862 10.4687C23.6288 10.806 23.2819 10.9874 22.8454 11.013C22.7716 11.0174 22.7593 11.0474 22.8085 11.103L22.9033 11.2116C22.9393 11.2522 22.9358 11.2888 22.8928 11.3215C22.7637 11.4195 22.668 11.544 22.6056 11.6949C22.6023 11.7034 22.5969 11.7109 22.59 11.7168C22.5831 11.7227 22.5749 11.7268 22.5661 11.7288C22.5572 11.7308 22.548 11.7305 22.5393 11.7281C22.5306 11.7256 22.5226 11.7211 22.516 11.7148L22.2828 11.4976C22.2611 11.4767 22.2324 11.4647 22.2023 11.4641C22.1722 11.4635 22.143 11.4742 22.1205 11.4942C22.0979 11.5142 22.0837 11.542 22.0806 11.5721C22.0774 11.6021 22.0857 11.6323 22.1036 11.6565C22.2178 11.8145 22.3518 11.9448 22.5055 12.0472C22.5292 12.0631 22.5432 12.0816 22.5476 12.1028C22.5564 12.1496 22.5415 12.1597 22.5028 12.1332C22.3526 12.0344 22.213 12.0441 22.0839 12.1624C22.0689 12.176 22.0575 12.1931 22.0504 12.212C22.0434 12.231 22.041 12.2514 22.0434 12.2715C22.0459 12.2915 22.0531 12.3106 22.0645 12.3271C22.0759 12.3436 22.0912 12.3571 22.1089 12.3663C22.3136 12.4749 22.4471 12.6417 22.5094 12.8668C22.5323 12.9498 22.5011 12.9966 22.4159 13.0072C21.21 13.1502 20.0001 13.1988 18.7863 13.1529C18.7468 13.1511 18.7191 13.1687 18.7033 13.2058C18.5663 13.5254 18.5408 13.8529 18.6269 14.1884C18.6313 14.2059 18.6314 14.2244 18.627 14.2422C18.6226 14.2599 18.614 14.2765 18.6019 14.2903C17.9668 15.0054 19.3739 15.2822 19.3212 16.1018C19.3186 16.146 19.3396 16.1689 19.3844 16.1707C19.6479 16.1786 19.8007 16.3146 19.8429 16.5785C19.8508 16.6244 19.8376 16.6633 19.8034 16.6951C19.333 17.1334 19.5452 17.9703 19.6137 18.545C19.6207 18.5988 19.5983 18.6341 19.5465 18.6509L19.2355 18.7529C19.2103 18.7611 19.1872 18.7748 19.1678 18.793C19.1484 18.8113 19.1333 18.8336 19.1235 18.8584C19.1137 18.8831 19.1094 18.9098 19.111 18.9364C19.1126 18.963 19.1201 18.989 19.1328 19.0124L19.5096 19.6996C19.5141 19.7078 19.5159 19.7171 19.5147 19.7262C19.5136 19.7353 19.5094 19.7437 19.503 19.75L19.4714 19.7804C19.4607 19.7915 19.4475 19.7997 19.4329 19.8043C19.4183 19.809 19.4028 19.8099 19.3878 19.807C19.3728 19.8041 19.3587 19.7975 19.3468 19.7878C19.335 19.778 19.3257 19.7655 19.3199 19.7513C19.1758 19.4052 18.9725 19.098 18.7099 18.8297C18.6604 18.7788 18.6272 18.7143 18.6145 18.6444C18.6018 18.5746 18.6103 18.5026 18.6387 18.4377C18.8162 18.0369 18.9281 17.6167 18.9747 17.1771C18.98 17.132 19.0046 17.1042 19.0485 17.0936C19.3269 17.0274 19.5359 16.8712 19.6756 16.6249C19.6975 16.5852 19.7041 16.5432 19.6953 16.4991C19.6229 16.1376 19.0076 16.3495 18.7626 16.3481C18.7401 16.3478 18.718 16.3416 18.6984 16.3303C18.6788 16.3189 18.6624 16.3027 18.6506 16.2832C18.345 15.7642 17.8153 14.8942 17.1513 14.8995C17.1161 14.8997 17.0816 14.9103 17.0522 14.9299C17.0228 14.9495 16.9997 14.9773 16.9857 15.0099C16.9718 15.0424 16.9675 15.0784 16.9735 15.1133C16.9796 15.1483 16.9956 15.1807 17.0196 15.2067C17.2155 15.4177 17.4517 15.5797 17.7284 15.6927C17.7572 15.7045 17.7834 15.722 17.8054 15.7442C17.8274 15.7663 17.8449 15.7925 17.8568 15.8215C17.8687 15.8504 17.8747 15.8814 17.8746 15.9127C17.8745 15.944 17.8683 15.975 17.8562 16.0038C17.764 16.2237 17.6037 16.3053 17.3753 16.2488C17.3349 16.2391 17.3015 16.2506 17.2752 16.2832L17.0657 16.5521C17.0519 16.5696 17.0451 16.5916 17.0466 16.6138C17.048 16.6361 17.0577 16.657 17.0736 16.6726L17.7073 17.3015C17.738 17.3324 17.7521 17.3695 17.7495 17.4128L17.702 18.1835C17.6976 18.2594 17.6594 18.2854 17.5874 18.2616L17.4544 18.2179C17.406 18.202 17.3617 18.2091 17.3213 18.2391L16.4544 18.8813C16.4011 18.9207 16.3618 18.9763 16.3424 19.0397C16.3229 19.1032 16.3243 19.1711 16.3464 19.2335L16.5875 19.9274C16.6015 19.9689 16.6288 19.9985 16.6692 20.0161C17.1303 20.2267 17.4886 20.4412 17.8931 20.2982C17.9475 20.2788 17.9726 20.2986 17.9682 20.3578C17.955 20.5193 18.0279 20.6005 18.1869 20.6014C18.2043 20.6015 18.2212 20.6077 18.2346 20.619C18.2481 20.6304 18.2573 20.6462 18.2606 20.6637L18.3911 21.3827C18.399 21.4268 18.3836 21.4595 18.345 21.4807C18.215 21.5504 18.1956 21.648 18.287 21.7733C18.297 21.7871 18.3022 21.8038 18.302 21.821C18.3017 21.8381 18.296 21.8548 18.2857 21.8687L17.8509 22.4579C17.8202 22.4994 17.7789 22.5219 17.7271 22.5255L17.5347 22.5361C17.497 22.5387 17.4794 22.559 17.482 22.597C17.4952 22.8318 17.5637 23.0445 17.6875 23.2352C17.7156 23.2794 17.7209 23.3262 17.7034 23.3756L17.5492 23.8073C17.5281 23.8647 17.5365 23.9176 17.5742 23.9662L18.1513 24.7011C18.165 24.7187 18.1715 24.741 18.1693 24.7634C18.1671 24.7858 18.1564 24.8066 18.1394 24.8216C17.8838 25.0476 17.9045 25.2643 18.2014 25.4718C18.2099 25.4777 18.2171 25.4854 18.2224 25.4944C18.2276 25.5034 18.2308 25.5135 18.2317 25.5239C18.2326 25.5343 18.2311 25.5447 18.2275 25.5545C18.2238 25.5643 18.218 25.5731 18.2106 25.5804C17.9409 25.839 17.9506 26.1087 18.2396 26.3895C18.254 26.404 18.2738 26.4125 18.2949 26.4133C18.9852 26.4437 18.7244 27.4144 18.5083 27.7467C18.4998 27.7602 18.4956 27.776 18.4964 27.792C18.4972 27.8079 18.5029 27.8232 18.5128 27.8358C18.5226 27.8483 18.5361 27.8574 18.5514 27.8619C18.5666 27.8663 18.5829 27.8659 18.5979 27.8606C18.8579 27.7644 19.0397 27.8341 19.1433 28.0698C19.1477 28.0786 19.1543 28.0859 19.1625 28.0911C19.1706 28.0962 19.1799 28.0989 19.1894 28.099C19.5135 28.0919 19.6962 28.1793 19.7375 28.3612C19.8069 28.6737 19.7924 28.9809 19.694 29.2828C19.6791 29.3287 19.6497 29.3609 19.6058 29.3795C19.2606 29.5207 19.0305 29.7728 18.9154 30.1356C18.9014 30.178 18.9084 30.2164 18.9365 30.2508L19.2593 30.6454C19.2731 30.6628 19.2814 30.6841 19.2828 30.7064C19.2842 30.7287 19.2787 30.7508 19.2672 30.7699C19.0432 31.1301 18.7762 31.4527 18.4662 31.7379C18.0419 32.1285 17.8575 32.4052 17.9708 32.9548C17.9796 32.9972 18.0029 33.0281 18.0406 33.0475L19.0775 33.5719C19.16 33.6133 19.16 33.6553 19.0775 33.6977L17.5321 34.5014C17.4355 34.5509 17.4122 34.6237 17.4623 34.7199C17.695 35.1719 17.699 35.6319 17.4741 36.0997C17.4669 36.1148 17.4635 36.1313 17.4641 36.148C17.4646 36.1646 17.4692 36.1808 17.4774 36.1952C17.4856 36.2096 17.4972 36.2217 17.5111 36.2304C17.5249 36.2392 17.5408 36.2443 17.5571 36.2454C18.1618 36.2931 18.8047 36.3381 19.4226 36.3156C19.7564 36.3032 19.9259 36.4581 19.9312 36.7804C19.9314 36.8003 19.939 36.8194 19.9525 36.8339C19.9659 36.8484 19.9841 36.8572 20.0036 36.8585L20.3027 36.8837C20.3252 36.8853 20.3468 36.8937 20.3647 36.9078C20.3825 36.922 20.3958 36.9412 20.4028 36.9631L20.5767 37.4941C20.5833 37.5138 20.5959 37.5309 20.6127 37.543C20.6295 37.5551 20.6496 37.5616 20.6703 37.5616H21.2605C21.3079 37.5616 21.3408 37.5833 21.3593 37.6265L21.4792 37.9059C21.4976 37.9492 21.484 37.9757 21.4383 37.9854C20.47 38.2039 20.4028 39.4552 21.3395 39.7982C21.4937 39.8551 21.6992 39.8538 21.8757 39.8843C21.9109 39.8904 21.9333 39.9107 21.9429 39.9452C22.0132 40.1932 21.9328 40.3468 21.7018 40.406C21.6736 40.4129 21.6482 40.4286 21.6294 40.451L21.0405 41.133C21.0132 41.1648 21.008 41.2001 21.0247 41.2389C21.1582 41.5532 21.1261 41.8476 20.9285 42.1221C20.9152 42.1405 20.9095 42.1634 20.9127 42.1859C20.9159 42.2084 20.9277 42.2287 20.9456 42.2426C21.2917 42.5066 21.5503 42.8372 21.7216 43.2345C21.7303 43.2547 21.7345 43.2765 21.734 43.2985C21.7334 43.3205 21.7282 43.3421 21.7185 43.3619C21.7089 43.3817 21.6951 43.3991 21.6781 43.413C21.6611 43.4269 21.6413 43.4369 21.6201 43.4424C21.3549 43.5121 21.1279 43.6392 20.939 43.8237C20.9195 43.8425 20.9048 43.8658 20.8963 43.8916C20.8878 43.9174 20.8858 43.9449 20.8903 43.9718C20.8949 43.9987 20.9059 44.0241 20.9224 44.0458C20.9389 44.0675 20.9604 44.0849 20.9851 44.0965C21.1863 44.1892 21.325 44.3406 21.4014 44.5507C21.4197 44.6007 21.4533 44.6437 21.4973 44.6734C21.5413 44.7031 21.5935 44.7181 21.6465 44.7162L22.8322 44.6699C22.8796 44.6681 22.92 44.6844 22.9534 44.7189C23.1528 44.9272 23.2454 45.1775 23.2314 45.4697C23.2288 45.5185 23.2433 45.5668 23.2722 45.6061C23.6293 46.1106 24.01 46.4059 24.1022 47.0508C24.1092 47.0967 24.1312 47.1338 24.1681 47.162L24.5488 47.4441C24.5901 47.475 24.602 47.5147 24.5844 47.5632C24.5106 47.7672 24.3657 47.8519 24.1496 47.8175C24.0996 47.8087 24.0825 47.829 24.0983 47.8784C24.3907 48.7908 22.8217 48.6967 22.7861 49.5376C22.7834 49.5835 22.8028 49.6162 22.8441 49.6356L23.126 49.768C23.1431 49.7765 23.1575 49.7893 23.1677 49.8052C23.1779 49.8211 23.1836 49.8394 23.184 49.8581C23.1901 50.0311 23.2727 50.0867 23.4316 50.0249C23.4712 50.0099 23.512 50.0055 23.5542 50.0117C23.8809 50.0611 24.205 50.1233 24.5264 50.1984C25.4447 50.4116 26.2141 49.9733 26.9611 49.5019C26.9773 49.4918 26.9913 49.4785 27.0022 49.4628C27.0131 49.4471 27.0206 49.4293 27.0243 49.4105C27.1332 48.8843 27.4358 48.525 27.9321 48.3326C27.9488 48.3261 27.9637 48.3157 27.9756 48.3024C27.9875 48.289 27.9961 48.2731 28.0006 48.2558L28.1534 47.6625C28.1581 47.6455 28.1675 47.6303 28.1803 47.6185C28.1931 47.6068 28.2089 47.5991 28.2258 47.5963L30.5472 47.1964C30.6464 47.1797 30.6579 47.1377 30.5815 47.0706L29.3839 46.0259C29.3127 45.9632 29.3141 45.9023 29.3878 45.8431C29.6232 45.6551 29.888 45.5686 30.1823 45.5836C30.2244 45.5862 30.2596 45.5712 30.2877 45.5385C30.5683 45.2194 30.2837 44.6672 30.6644 44.2104C30.6969 44.1715 30.6996 44.1305 30.6724 44.0872C30.4624 43.7544 30.4769 43.43 30.7158 43.114C30.7413 43.0804 30.7716 43.0526 30.8067 43.0305C30.8893 42.9785 30.9657 42.9749 31.036 43.0199C31.0461 43.0261 31.0576 43.0298 31.0694 43.0306C31.0813 43.0315 31.0931 43.0295 31.1041 43.0248C31.115 43.0202 31.1247 43.013 31.1323 43.0038C31.1399 42.9947 31.1453 42.9839 31.148 42.9723C31.2103 42.6783 31.3627 42.4536 31.6051 42.2983C31.6163 42.2911 31.6255 42.2812 31.6319 42.2694C31.6382 42.2577 31.6414 42.2444 31.6413 42.231C31.6412 42.2175 31.6377 42.2042 31.6311 42.1924C31.6245 42.1806 31.6152 42.1705 31.6038 42.1632C31.4606 42.0723 31.4075 41.9398 31.4444 41.7659C31.454 41.7191 31.4387 41.6838 31.3983 41.66C30.8146 41.3144 31.2626 40.4603 31.4892 40.0233C31.5103 39.9845 31.5423 39.9699 31.5853 39.9796C32.0667 40.0891 32.5497 40.0891 33.0345 39.9796C33.0511 39.9759 33.0666 39.9686 33.08 39.9583C33.0934 39.948 33.1044 39.935 33.1123 39.92L33.3349 39.5002C33.3565 39.4588 33.3899 39.4248 33.4308 39.4025C33.4718 39.3802 33.5184 39.3706 33.5647 39.375C33.611 39.3794 33.655 39.3976 33.6911 39.4272C33.7271 39.4568 33.7535 39.4965 33.767 39.5413C33.883 39.924 34.3467 40.6364 34.8487 40.3305C34.8664 40.3196 34.8794 40.3024 34.8848 40.2824C34.8902 40.2624 34.8876 40.2412 34.8777 40.2233C34.3283 39.1944 35.7986 38.6885 36.1938 37.9284C36.2122 37.8931 36.2127 37.8578 36.1951 37.8225L36.0212 37.4623C36.0119 37.4436 36.0097 37.422 36.0151 37.4016C36.0204 37.3812 36.0328 37.3633 36.0502 37.3511L36.4415 37.0783C36.481 37.0501 36.5218 37.0487 36.564 37.0743L37.6087 37.7086C37.6439 37.7298 37.6812 37.7351 37.7207 37.7245C37.8973 37.6768 38.0382 37.7373 38.1436 37.9059C38.1542 37.9234 38.1708 37.9365 38.1904 37.9428C38.2099 37.9491 38.2312 37.9483 38.2503 37.9403L38.5718 37.8053C38.5836 37.8003 38.594 37.7926 38.6024 37.7829C38.6107 37.7732 38.6167 37.7617 38.6199 37.7493C38.6231 37.7368 38.6234 37.7238 38.6207 37.7113C38.6181 37.6987 38.6126 37.6869 38.6047 37.6768C38.3623 37.3696 38.7273 37.2134 38.9196 37.073C38.9342 37.0622 38.9447 37.0468 38.9495 37.0293C38.9543 37.0117 38.953 36.9931 38.9459 36.9763L38.7088 36.4255C38.701 36.4075 38.6867 36.3932 38.6686 36.3853C38.6506 36.3775 38.6301 36.3767 38.6113 36.3831L38.4229 36.448C38.4095 36.4527 38.3951 36.4542 38.381 36.4525C38.3669 36.4508 38.3533 36.4458 38.3414 36.438C38.3294 36.4302 38.3194 36.4198 38.3121 36.4075C38.3047 36.3953 38.3003 36.3815 38.2991 36.3672L38.2582 35.9236C38.2563 35.9011 38.2621 35.8787 38.2746 35.8601C38.2871 35.8415 38.3055 35.828 38.3268 35.8217L38.7259 35.6959C38.7356 35.6929 38.7444 35.6877 38.7516 35.6807C38.7588 35.6737 38.7644 35.665 38.7677 35.6553C38.771 35.6457 38.7721 35.6354 38.7708 35.6251C38.7695 35.6149 38.7658 35.6051 38.7602 35.5965C38.6609 35.4465 38.6131 35.2823 38.6166 35.1039C38.6183 35.0421 38.5889 35.0161 38.5283 35.0258C36.9882 35.2721 37.4269 33.0898 38.3834 32.7389C38.4185 32.7266 38.4414 32.7023 38.4519 32.6661L38.9301 31.0665C38.9442 31.0206 38.9297 30.9879 38.8867 30.9685C38.6249 30.8502 38.4115 30.667 38.2464 30.419C38.2288 30.3925 38.2253 30.3638 38.2359 30.3329C38.3294 30.0614 38.4216 29.8893 38.3729 29.586C38.3307 29.3221 38.2986 29.0524 38.2767 28.777C38.2732 28.7328 38.2929 28.7147 38.336 28.7227C38.7813 28.8074 39.1668 28.6953 39.4927 28.3863C39.517 28.3632 39.5334 28.3329 39.5395 28.2998C39.5456 28.2666 39.541 28.2325 39.5265 28.2021C39.512 28.1718 39.4883 28.1468 39.4587 28.1309C39.4292 28.115 39.3954 28.1089 39.3623 28.1135C38.8827 28.1798 38.4273 28.1135 37.9961 27.9149C37.9478 27.8928 37.9012 27.8955 37.8564 27.9229C37.6483 28.0544 37.4401 28.0513 37.232 27.9136C37.2021 27.8942 37.1854 27.8668 37.1819 27.8315C37.1248 27.2312 37.3207 26.7439 37.7695 26.3696C37.7777 26.3631 37.784 26.3545 37.7878 26.3446C37.7916 26.3348 37.7926 26.3241 37.7909 26.3136C37.7892 26.3031 37.7847 26.2932 37.7779 26.2849C37.7711 26.2766 37.7623 26.2702 37.7523 26.2663C37.5354 26.1877 37.3663 26.0496 37.2451 25.8518C37.234 25.8343 37.2267 25.8147 37.2237 25.7941C37.2208 25.7736 37.2222 25.7526 37.228 25.7327C37.2965 25.4855 37.2166 25.3341 36.9882 25.2785C36.9653 25.2727 36.9441 25.2617 36.9263 25.2463C36.9084 25.2308 36.8945 25.2115 36.8855 25.1897C36.6852 24.7197 36.7471 24.2257 36.2294 23.9768C36.1837 23.9547 36.1789 23.9256 36.2149 23.8894L36.8459 23.2524C36.8793 23.2198 36.8912 23.1801 36.8815 23.1333C36.6286 21.9031 36.4283 20.6729 35.5298 19.8996C35.4841 19.8608 35.4885 19.829 35.543 19.8043C35.5843 19.7848 35.6273 19.7787 35.6721 19.7857C35.7169 19.7928 35.7595 19.7862 35.7999 19.7659C36.3835 19.4719 36.7484 18.8508 37.4796 18.9647C37.4976 18.9675 37.5159 18.9658 37.533 18.9597C37.5501 18.9536 37.5654 18.9433 37.5775 18.9298C37.5897 18.9162 37.5983 18.8999 37.6026 18.8822C37.6069 18.8645 37.6067 18.846 37.6022 18.8283L37.4177 18.1371C37.4107 18.1119 37.4118 18.0851 37.4208 18.0604C37.4297 18.0358 37.4462 18.0144 37.4678 17.9994L37.7642 17.7941C37.7804 17.7828 37.7919 17.7659 37.7966 17.7466C37.8012 17.7273 37.7986 17.707 37.7892 17.6895L37.6983 17.52C37.6764 17.4801 37.6696 17.4335 37.6793 17.3889C37.689 17.3443 37.7145 17.3048 37.751 17.2777C38.224 16.9241 38.8142 16.6077 38.9657 16.0158C38.9763 15.976 38.9613 15.9548 38.9209 15.9522L38.4954 15.9244C38.4748 15.9232 38.4552 15.9148 38.4402 15.9004C38.4253 15.8861 38.4159 15.8669 38.4137 15.8463C38.3382 15.1798 38.0053 14.703 37.4151 14.4161C37.3685 14.3932 37.3387 14.3565 37.3255 14.3062L37.2939 14.1844C37.2825 14.1376 37.2526 14.1173 37.2043 14.1235C36.7972 14.1712 36.7932 13.6137 36.7089 13.3409C36.6975 13.3012 36.6755 13.2681 36.643 13.2416L36.3901 13.031C36.3767 13.0198 36.3675 13.0043 36.3642 12.9874C36.3608 12.9705 36.3634 12.9531 36.3717 12.9383L36.6312 12.4616C36.6369 12.4515 36.6397 12.44 36.6393 12.4283C36.639 12.4167 36.6354 12.4053 36.6291 12.3954C36.6228 12.3856 36.6139 12.3775 36.6033 12.3721C36.5928 12.3668 36.5811 12.3643 36.5693 12.365C36.3664 12.3782 36.1999 12.4519 36.07 12.5861C35.6695 13.0006 34.846 13.6945 34.2123 13.664C34.0657 13.6569 33.9862 13.7267 33.9739 13.8732C33.959 14.0542 33.894 14.21 33.7789 14.3407C33.7508 14.3724 33.7416 14.3676 33.7512 14.3261ZM80.2639 29.3358L80.119 27.9692C80.1146 27.9304 80.13 27.903 80.1651 27.8871C82.1452 27.0012 83.2703 25.146 83.0872 22.9903C82.7618 19.1541 78.3101 17.3148 75.3248 19.6944C73.9423 20.797 73.3653 22.3516 73.5936 24.3581C73.5989 24.4049 73.58 24.4367 73.537 24.4535L71.1761 25.4003C71.1357 25.4171 71.1028 25.4069 71.0773 25.3698C69.6228 23.2096 67.583 22.3644 64.9577 22.834C64.9129 22.8411 64.8774 22.8269 64.851 22.7916L62.726 19.9128C62.6961 19.8722 62.6979 19.833 62.7312 19.795C63.1713 19.3042 63.4686 18.737 63.6232 18.0934C63.6346 18.0466 63.6631 18.0303 63.7088 18.0444L65.5651 18.6204C65.6055 18.6328 65.6318 18.6588 65.6441 18.6986C66.1658 20.2849 67.8416 20.9457 69.1472 19.8903C70.0075 19.1938 70.1735 17.7451 69.4647 16.8831C68.5689 15.7933 67.0736 15.8145 66.0894 16.8407C66.0613 16.8707 66.0279 16.8791 65.9893 16.8659L63.5955 16.0674C63.5516 16.0524 63.5208 16.0237 63.5033 15.9813C61.7787 11.8313 55.8252 13.272 56.277 17.7041C56.501 19.8943 58.6063 21.3456 60.7788 20.9086C60.8201 20.8998 60.853 20.9126 60.8776 20.947L62.9578 23.7225C62.9842 23.7578 62.9802 23.7901 62.946 23.8192C61.2719 25.1875 60.561 26.9681 60.813 29.161C60.8183 29.206 60.8003 29.2378 60.759 29.2563L58.3494 30.3475C58.3367 30.3534 58.3222 30.3543 58.3086 30.3502C58.2951 30.3461 58.2833 30.3371 58.2756 30.3249C57.3877 28.9487 56.1124 28.3453 54.4497 28.5148C54.4058 28.5192 54.3803 28.4989 54.3733 28.4539L54.0743 26.4941C54.0672 26.4473 54.0826 26.4093 54.1204 26.3802C55.4945 25.3129 55.2046 23.1876 53.5578 22.5877C51.9887 22.017 50.5066 23.3941 50.7556 24.9845C50.8812 25.7878 51.3937 26.3815 52.2931 26.7655C52.3016 26.7692 52.309 26.775 52.3148 26.7824C52.3205 26.7898 52.3244 26.7985 52.326 26.8079L52.6949 29.2497C52.6978 29.268 52.6961 29.2867 52.6902 29.3043C52.6842 29.3218 52.6741 29.3376 52.6606 29.3503C51.334 30.6176 50.919 32.298 51.7305 33.9201C53.4353 37.3246 58.4825 36.2904 58.771 32.4489C58.7745 32.4075 58.7956 32.3783 58.8342 32.3615L61.4625 31.2201C61.5082 31.2007 61.5455 31.2113 61.5745 31.2519C63.1678 33.5109 65.3341 34.2993 68.0735 33.6169C68.1122 33.6072 68.1381 33.6213 68.1512 33.6593L68.8455 35.6561C68.8605 35.6994 68.8495 35.7347 68.8126 35.7621C67.395 36.8082 66.9155 38.6369 67.8482 40.1663C69.412 42.7339 73.3697 41.9699 73.815 38.9242C74.1022 36.9631 72.6411 35.3675 70.7031 35.2231C70.654 35.2196 70.621 35.1949 70.6043 35.149L69.7519 32.7615C69.7453 32.7427 69.7446 32.7223 69.7498 32.7029C69.7549 32.6835 69.7658 32.6661 69.7809 32.6529C71.3592 31.3269 72.0434 29.6139 71.8335 27.5137C71.8282 27.4625 71.8493 27.4272 71.8968 27.4078L74.3973 26.3775C74.4552 26.3546 74.504 26.3669 74.5435 26.4146C75.6247 27.715 77.0212 28.3281 78.733 28.2539C78.7518 28.2528 78.7703 28.2593 78.7845 28.2719C78.7988 28.2845 78.8077 28.3023 78.8094 28.3214L78.9122 29.3967C78.9166 29.4391 78.899 29.4686 78.8595 29.4854C75.8755 30.7738 78.1691 35.1966 80.9147 33.4275C82.5207 32.3933 82.1123 30.0111 80.3245 29.4126C80.2885 29.4002 80.2683 29.3746 80.2639 29.3358Z" fill="white"/>
</svg>
